<?xml version="1.0" standalone="no"?>
<!DOCTYPE svg PUBLIC "-//W3C//DTD SVG 20010904//EN"
 "http://www.w3.org/TR/2001/REC-SVG-20010904/DTD/svg10.dtd">
<svg version="1.0" xmlns="http://www.w3.org/2000/svg"
 width="512.000000pt" height="512.000000pt" viewBox="0 0 512.000000 512.000000"
 preserveAspectRatio="xMidYMid meet">

<g transform="translate(0.000000,512.000000) scale(0.100000,-0.100000)"
fill="#000000" stroke="none">
<path d="M1765 4935 l-25 -24 0 -216 0 -216 -297 -407 -298 -407 -3 -567 -2
-568 -426 0 -425 0 -24 -25 c-14 -13 -25 -30 -25 -38 0 -68 212 -2252 220
-2267 6 -11 19 -24 30 -30 21 -11 4315 -15 4345 -4 47 18 45 -52 45 1774 0
1182 -3 1717 -11 1731 -5 11 -140 198 -300 416 l-289 395 0 215 c0 214 0 214
-25 238 l-24 25 -1221 0 -1221 0 -24 -25z m2275 -568 c0 -2 -105 -147 -234
-322 l-233 -320 -1093 -3 c-600 -1 -1090 2 -1088 6 1 4 107 150 233 324 l230
317 1093 0 c600 1 1092 0 1092 -2z m384 -352 l215 -295 -435 0 -435 0 38 53
c205 285 389 536 395 536 3 1 103 -132 222 -294z m296 -2075 l0 -1620 -515 0
-515 0 0 1620 0 1620 515 0 515 0 0 -1620z m-2580 426 c0 -2 -43 -461 -95
-1021 -52 -559 -95 -1019 -95 -1021 0 -2 -304 -4 -675 -4 -371 0 -675 2 -675
5 0 2 -43 461 -95 1020 -52 558 -95 1017 -95 1020 0 3 389 5 865 5 476 0 865
-2 865 -4z"/>
<path d="M870 1864 c-67 -13 -164 -50 -207 -78 -46 -30 -48 -34 -51 -81 -1
-28 22 -311 52 -630 l55 -580 26 -22 26 -23 504 0 504 0 26 23 26 22 54 579
c30 319 55 598 55 621 0 83 -59 115 -133 72 -65 -38 -142 -57 -232 -57 -95 0
-160 17 -265 70 -116 58 -201 81 -315 85 -55 2 -111 1 -125 -1z"/>
</g>
</svg>
